<mxfile host="app.diagrams.net" modified="2022-06-13T02:02:38.108Z" agent="5.0 (Windows NT 10.0; Win64; x64) AppleWebKit/537.36 (KHTML, like Gecko) Chrome/96.0.4664.110 Safari/537.36" etag="tTNGFdWrWWfOsvZ9YVjy" version="17.4.5" type="github">
  <diagram id="moBCOV7V4QCk1tg6ld-5" name="第 1 页">
    <mxGraphModel dx="1038" dy="547" grid="1" gridSize="10" guides="1" tooltips="1" connect="1" arrows="1" fold="1" page="1" pageScale="1" pageWidth="827" pageHeight="1169" math="0" shadow="0">
      <root>
        <mxCell id="0" />
        <mxCell id="1" parent="0" />
        <mxCell id="yyoKriEDa8kBR1fQZ0GH-10" value="" style="rounded=0;whiteSpace=wrap;html=1;fontSize=18;fillColor=none;dashed=1;" vertex="1" parent="1">
          <mxGeometry x="225" y="650" width="425" height="350" as="geometry" />
        </mxCell>
        <mxCell id="yyoKriEDa8kBR1fQZ0GH-13" style="edgeStyle=none;rounded=0;orthogonalLoop=1;jettySize=auto;html=1;fontSize=18;entryX=-0.008;entryY=0.462;entryDx=0;entryDy=0;entryPerimeter=0;" edge="1" parent="1" source="yyoKriEDa8kBR1fQZ0GH-1" target="yyoKriEDa8kBR1fQZ0GH-3">
          <mxGeometry relative="1" as="geometry" />
        </mxCell>
        <mxCell id="yyoKriEDa8kBR1fQZ0GH-2" value="" style="rounded=0;whiteSpace=wrap;html=1;fillColor=none;" vertex="1" parent="1">
          <mxGeometry x="240" y="720" width="200" height="230" as="geometry" />
        </mxCell>
        <mxCell id="yyoKriEDa8kBR1fQZ0GH-1" value="&lt;b&gt;&lt;font style=&quot;font-size: 18px&quot;&gt;客户端&lt;/font&gt;&lt;/b&gt;" style="rounded=0;whiteSpace=wrap;html=1;fillColor=none;" vertex="1" parent="1">
          <mxGeometry x="60" y="710" width="90" height="230" as="geometry" />
        </mxCell>
        <mxCell id="yyoKriEDa8kBR1fQZ0GH-14" style="edgeStyle=none;rounded=0;orthogonalLoop=1;jettySize=auto;html=1;exitX=0;exitY=0.709;exitDx=0;exitDy=0;entryX=1;entryY=0.75;entryDx=0;entryDy=0;fontSize=18;exitPerimeter=0;" edge="1" parent="1" source="yyoKriEDa8kBR1fQZ0GH-3" target="yyoKriEDa8kBR1fQZ0GH-1">
          <mxGeometry relative="1" as="geometry" />
        </mxCell>
        <mxCell id="yyoKriEDa8kBR1fQZ0GH-3" value="&lt;font style=&quot;font-size: 18px&quot;&gt;&lt;b&gt;Controller&lt;/b&gt;&lt;/font&gt;" style="rounded=0;whiteSpace=wrap;html=1;fillColor=none;" vertex="1" parent="1">
          <mxGeometry x="530" y="720" width="100" height="230" as="geometry" />
        </mxCell>
        <mxCell id="yyoKriEDa8kBR1fQZ0GH-4" value="&lt;b&gt;Filter1&lt;/b&gt;" style="rounded=0;whiteSpace=wrap;html=1;fillColor=none;" vertex="1" parent="1">
          <mxGeometry x="260" y="780" width="50" height="160" as="geometry" />
        </mxCell>
        <mxCell id="yyoKriEDa8kBR1fQZ0GH-5" value="&lt;b&gt;Filter2&lt;/b&gt;" style="rounded=0;whiteSpace=wrap;html=1;fillColor=none;" vertex="1" parent="1">
          <mxGeometry x="340" y="780" width="50" height="160" as="geometry" />
        </mxCell>
        <mxCell id="yyoKriEDa8kBR1fQZ0GH-6" value="&lt;b&gt;...&lt;/b&gt;" style="text;html=1;resizable=0;autosize=1;align=center;verticalAlign=middle;points=[];fillColor=none;strokeColor=none;rounded=0;" vertex="1" parent="1">
          <mxGeometry x="399" y="850" width="30" height="20" as="geometry" />
        </mxCell>
        <mxCell id="yyoKriEDa8kBR1fQZ0GH-7" value="&lt;b&gt;&lt;font style=&quot;font-size: 18px&quot;&gt;过滤器Filter&lt;/font&gt;&lt;/b&gt;" style="text;html=1;resizable=0;autosize=1;align=center;verticalAlign=middle;points=[];fillColor=none;strokeColor=none;rounded=0;" vertex="1" parent="1">
          <mxGeometry x="289" y="740" width="110" height="20" as="geometry" />
        </mxCell>
        <mxCell id="yyoKriEDa8kBR1fQZ0GH-11" value="&lt;b&gt;服务端&lt;/b&gt;" style="text;html=1;resizable=0;autosize=1;align=center;verticalAlign=middle;points=[];fillColor=none;strokeColor=none;rounded=0;dashed=1;fontSize=18;" vertex="1" parent="1">
          <mxGeometry x="414" y="670" width="70" height="30" as="geometry" />
        </mxCell>
      </root>
    </mxGraphModel>
  </diagram>
</mxfile>
